# xmcd
#
# Track frame offsets: 
#        150
#        3366
#        23691
#        30153
#        58362
#        81799
#        101618
#        121640
#        146567
#        172460
#
# Disc length: 2564 seconds
#
# Revision: 0
# Processed by: cddbd v1.5.2PL0 Copyright (c) Steve Scherf et al.
# Submitted via: ExactAudioCopy v0.99pb4
#
DISCID=790a020a
DTITLE=Shania Twain - Live w-Alison Krauss And Union Station (Bootleg)
DYEAR=2003
DGENRE=Country
TTITLE0=Intro
TTITLE1=I'm Gonna Get You Good
TTITLE2=Intro To Alison Krauss And Union Station
TTITLE3=Ain't No Particular Way
TTITLE4=Whose Bed Have Your Boots Been Under
TTITLE5=I Don't Known
TTITLE6=You're Still The One
TTITLE7=She's Not Just A Pretty Face
TTITLE8=Forever And For Always
TTITLE9=You Shook Me All Night Long (AC-DC Cover)
EXTD=
EXTT0=
EXTT1=
EXTT2=
EXTT3=
EXTT4=
EXTT5=
EXTT6=
EXTT7=
EXTT8=
EXTT9=
PLAYORDER=
